<svg xmlns="http://www.w3.org/2000/svg" viewBox="0 0 197.35 134.57"><defs><style>.cls-1{fill:#dadada;}.cls-2,.cls-5{fill:#1d1d1b;}.cls-3{fill:#dd0a28;}.cls-4{fill:#e7313d;}.cls-5{font-size:11.45px;stroke:#dadada;stroke-miterlimit:10;stroke-width:0.75px;font-family:LVDCGameOver2, "LVDC Game Over 2";}</style></defs><title>Asset 1</title><g id="Layer_2" data-name="Layer 2"><g id="Teksten"><rect class="cls-1" x="123.88" y="13.05" width="49.98" height="45.67"/><rect class="cls-1" x="138.14" y="47.43" width="35.82" height="37.39"/><rect class="cls-1" x="152.41" y="81.01" width="19.56" height="29.86"/><rect class="cls-1" x="116.22" y="31.34" width="32.65" height="16.29"/><rect class="cls-2" x="130.96" y="58.72" width="7.18" height="13.05"/><rect class="cls-2" x="138.14" y="71.77" width="7.09" height="13.05"/><rect class="cls-2" x="145.23" y="84.82" width="7.17" height="13.05"/><rect class="cls-2" x="152.41" y="97.87" width="7.09" height="13"/><polygon class="cls-2" points="166.57 84.82 166.57 110.87 159.5 110.87 159.5 117.42 166.57 117.42 166.57 123.97 173.64 123.97 173.64 117.42 173.64 110.87 173.64 84.82 166.57 84.82"/><rect class="cls-2" x="173.86" y="26.18" width="7" height="58.64"/><rect class="cls-2" x="166.5" y="13.05" width="7.36" height="13.12"/><rect class="cls-2" x="159.5" y="32.87" width="7" height="45.43"/><polygon class="cls-2" points="159.5 6.53 159.5 0 138.12 0 138.12 6.53 130.96 6.53 130.96 12.62 130.96 13.05 123.88 13.05 123.88 19.61 130.96 19.61 130.96 26.18 138.12 26.18 138.12 13.05 152.25 13.05 152.25 32.87 159.5 32.87 159.5 13.05 166.5 13.05 166.5 6.53 159.5 6.53"/><polygon class="cls-2" points="116.72 45.92 116.72 32.87 123.88 32.87 123.88 19.61 116.72 19.61 116.72 26.18 109.61 26.18 109.61 52.27 113.69 52.27 116.72 52.27 123.88 52.27 123.88 58.72 130.96 58.72 130.96 52.27 130.96 50.56 130.96 45.92 116.72 45.92"/><rect class="cls-2" x="138.12" y="26.18" width="7.12" height="13.05"/><rect class="cls-2" x="145.23" y="39.22" width="7.01" height="26.02"/><rect class="cls-1" x="17.9" y="13.05" width="49.98" height="45.67" transform="translate(85.77 71.78) rotate(180)"/><rect class="cls-1" x="17.79" y="47.43" width="35.82" height="37.39" transform="translate(71.41 132.25) rotate(180)"/><rect class="cls-1" x="19.79" y="81.01" width="19.56" height="29.86" transform="translate(59.14 191.88) rotate(180)"/><rect class="cls-1" x="42.89" y="31.34" width="32.65" height="16.29" transform="translate(118.42 78.98) rotate(180)"/><rect class="cls-2" x="53.61" y="58.72" width="7.18" height="13.05" transform="translate(114.41 130.5) rotate(180)"/><rect class="cls-2" x="46.52" y="71.77" width="7.09" height="13.05" transform="translate(100.13 156.59) rotate(180)"/><rect class="cls-2" x="39.35" y="84.82" width="7.17" height="13.05" transform="translate(85.87 182.69) rotate(180)"/><rect class="cls-2" x="32.25" y="97.87" width="7.09" height="13" transform="translate(71.6 208.74) rotate(180)"/><polygon class="cls-2" points="25.18 84.82 25.18 110.87 32.25 110.87 32.25 117.42 25.18 117.42 25.18 123.97 18.11 123.97 18.11 117.42 18.11 110.87 18.11 84.82 25.18 84.82"/><rect class="cls-2" x="10.9" y="26.18" width="7" height="58.64" transform="translate(28.8 111) rotate(180)"/><rect class="cls-2" x="17.9" y="13.05" width="7.36" height="13.12" transform="translate(43.15 39.23) rotate(180)"/><rect class="cls-2" x="25.25" y="32.87" width="7" height="45.43" transform="translate(57.51 111.17) rotate(180)"/><polygon class="cls-2" points="32.25 6.53 32.25 0 53.64 0 53.64 6.53 60.8 6.53 60.8 12.62 60.8 13.05 67.87 13.05 67.87 19.61 60.8 19.61 60.8 26.18 53.64 26.18 53.64 13.05 39.51 13.05 39.51 32.87 32.25 32.87 32.25 13.05 25.25 13.05 25.25 6.53 32.25 6.53"/><polygon class="cls-2" points="75.03 45.92 75.03 32.87 67.87 32.87 67.87 19.61 75.03 19.61 75.03 26.18 82.14 26.18 82.14 52.27 78.06 52.27 75.03 52.27 67.87 52.27 67.87 58.72 60.8 58.72 60.8 52.27 60.8 50.56 60.8 45.92 75.03 45.92"/><rect class="cls-2" x="46.52" y="26.18" width="7.12" height="13.05" transform="translate(100.16 65.4) rotate(180)"/><rect class="cls-2" x="39.51" y="39.22" width="7.01" height="26.02" transform="translate(86.03 104.47) rotate(180)"/><polygon class="cls-3" points="137.28 46.51 137.28 37.32 128.09 37.32 128.09 28.13 118.9 28.13 109.71 28.13 109.71 37.32 100.52 37.32 100.52 46.51 91.33 46.51 91.33 37.32 82.14 37.32 82.14 28.13 72.95 28.13 63.77 28.13 63.77 37.32 54.58 37.32 54.58 46.51 45.39 46.51 45.39 55.7 45.39 64.89 45.39 74.08 54.58 74.08 54.58 83.27 63.77 83.27 63.77 92.46 72.95 92.46 72.95 101.65 82.14 101.65 82.14 110.84 91.33 110.84 91.33 120.03 100.52 120.03 100.52 110.84 109.71 110.84 109.71 101.65 118.9 101.65 118.9 92.46 128.09 92.46 128.09 83.27 137.28 83.27 137.28 74.08 146.47 74.08 146.47 64.89 146.47 55.7 146.47 46.51 137.28 46.51"/><polygon class="cls-4" points="137.28 55.18 137.28 45.99 128.09 45.99 128.09 36.8 118.9 36.8 109.71 36.8 109.71 45.99 100.52 45.99 100.52 55.18 91.33 55.18 91.33 45.99 82.14 45.99 82.14 36.8 72.95 36.8 63.77 36.8 63.77 45.99 54.58 45.99 54.58 55.18 54.58 64.37 54.58 73.56 63.77 73.56 63.77 82.75 72.95 82.75 72.95 91.94 82.14 91.94 82.14 101.13 91.33 101.13 91.33 110.32 100.52 110.32 100.52 101.13 109.71 101.13 109.71 91.94 118.9 91.94 118.9 82.75 128.09 82.75 128.09 73.56 137.28 73.56 137.28 64.37 137.28 55.18"/><text class="cls-5" transform="translate(0.75 132.19)">geek matching</text></g></g></svg>